# xmcd
#
# Track frame offsets: 
#        150
#        45122
#        57063
#        68684
#        105260
#        124303
#        156928
#        195671
#        218199
#        256116
#        308191
#        318296
#
# Disc length: 4475 seconds
#
# Revision: 1
# Processed by: cddbd v1.5.2PL0 Copyright (c) Steve Scherf et al.
# Submitted via: ExactAudioCopyFreeDBPlugin 1.0
#
DISCID=9811790c
DTITLE=Santana - 1969 - Hot Tamales
DYEAR=1969
DGENRE=Pop/Funk
TTITLE0=Jingo
TTITLE1=Acapulco Sunrise
TTITLE2=Coconut Grove
TTITLE3=Hot Tamales
TTITLE4=With A Little Help From My Friends
TTITLE5=Everyday I Have The Blues
TTITLE6=Jam In E
TTITLE7=Travellin' Home
TTITLE8=Jammin' Home
TTITLE9=Latin Tropical
TTITLE10=Let's Get Ourselves Together
TTITLE11=As The Years Go By
EXTD=
EXTT0=
EXTT1=
EXTT2=
EXTT3=
EXTT4=
EXTT5=
EXTT6=
EXTT7=
EXTT8=
EXTT9=
EXTT10=
EXTT11=
PLAYORDER=
